<?xml version="1.0" encoding="utf-8"?>
<!-- Generator: Adobe Illustrator 15.0.0, SVG Export Plug-In . SVG Version: 6.00 Build 0)  -->
<!DOCTYPE svg PUBLIC "-//W3C//DTD SVG 1.1//EN" "http://www.w3.org/Graphics/SVG/1.1/DTD/svg11.dtd">
<svg version="1.1" id="Layer_1" xmlns="http://www.w3.org/2000/svg" xmlns:xlink="http://www.w3.org/1999/xlink" x="0px" y="0px"
	 width="798.343px" height="396.19px" viewBox="2.048 1.919 798.343 396.19" enable-background="new 2.048 1.919 798.343 396.19"
	 xml:space="preserve">
<g>
	<path d="M256.126,189.153c-11.588-11.858-25.725-16.694-42.406-14.506c-9.986,1.31-19.848,5.454-29.584,12.426
		c-4.748,3.474-12.725,10.651-23.932,21.532l3.777,31.648l3.919,28.471l4.111,29.932c6.196,1.914,14.863,4.248,26,6.996
		c7.853,1.324,16.467,1.371,25.845,0.141c17.655-2.314,31.334-10.425,41.029-24.332c9.697-13.904,13.331-30.111,10.904-48.623
		C273.411,214.695,266.857,200.134,256.126,189.153z"/>
	<path d="M795.722,163.704c0.006-0.047,0.011-0.085,0.016-0.123C795.733,163.618,795.728,163.658,795.722,163.704z"/>
	<path d="M795.654,164.229c0.027-0.209,0.05-0.385,0.068-0.525C795.704,163.837,795.682,164.011,795.654,164.229z"/>
	<path d="M795.603,164.617c0.019-0.142,0.035-0.272,0.051-0.389C795.638,164.349,795.621,164.478,795.603,164.617z"/>
	<path d="M795.738,163.581c0.006-0.044,0.011-0.082,0.015-0.114C795.748,163.498,795.743,163.536,795.738,163.581z"/>
	<path d="M795.603,164.617c-0.117,0.903-0.303,2.332-0.576,4.438c-0.001,0.011-0.003,0.023-0.004,0.035
		C795.24,167.408,795.459,165.723,795.603,164.617z"/>
	<path d="M795.764,163.38C795.768,163.343,795.769,163.342,795.764,163.38L795.764,163.38z"/>
	<path d="M795.752,163.467c0.005-0.039,0.009-0.067,0.012-0.086C795.761,163.4,795.757,163.428,795.752,163.467z"/>
	<path d="M795.023,169.09c-0.641,4.933-1.276,9.832,0.004-0.035c3.34-25.737,11.809-155.916-12.19-162.406
		c-37.768-10.212-79.996,4.089-118.43,0.345C591.202-0.14,517.699,2.025,444.365,3.021C307.23,4.887,170.127,10.384,32.978,11.798
		c-33.04,0.34-21.088,87.738-21.658,125.694c-0.714,47.642-24.211,217.4,6.463,239.696c43.629,31.716,122.38,14.306,169.586,13.858
		c60.855-0.576,121.755-4.696,182.561-8.182c99.482-5.701,197.594,8.984,296.875,14.594c33.063,1.87,51.769-4.976,119.88,0.631
		C814.404,400.373,790.783,202.02,795.023,169.09z M291.452,302.689c-15.362,21.709-36.377,34.313-63.045,37.809
		c-18.631,2.443-36.037,1.01-52.216-4.301c-3.132,6.357-7.499,9.902-13.099,10.636c-4.629,0.606-8.768-0.493-12.416-3.295
		c-3.65-2.802-5.794-6.641-6.433-11.513c-0.415-3.164-0.879-7.873-1.388-14.125c-0.512-6.249-0.973-10.955-1.388-14.123
		c-1.692-12.906-4.563-32.195-8.609-57.863c-4.048-25.668-6.917-44.954-8.609-57.862c-1.165-8.888-3.313-25.731-6.439-50.529
		c-3.13-24.794-5.282-41.699-6.464-50.712c-0.958-7.306-0.299-14.081,1.979-20.326c3.044-7.953,8.097-12.396,15.161-13.322
		c9.133-1.198,14.394,3.5,15.783,14.095c0.224,1.707,0.245,4.241,0.068,7.609c-0.18,3.368-0.154,5.905,0.068,7.608l4.698,40.074
		l5.741,46.626c9.652-8.573,19.021-15.283,28.11-20.129c9.088-4.844,17.834-7.819,26.236-8.921
		c26.18-3.433,48.745,3.828,67.7,21.779c17.818,16.865,28.531,39.057,32.14,66.574C312.674,256.243,306.814,280.98,291.452,302.689z
		 M404.759,320.162c-3.872,4.965-8.91,7.855-15.12,8.67c-6.333,0.831-11.979-0.658-16.937-4.467
		c-4.959-3.811-7.854-8.883-8.684-15.213c-0.814-6.211,0.68-11.822,4.48-16.844c3.801-5.02,8.866-7.945,15.199-8.775
		c6.211-0.814,11.828,0.711,16.856,4.572c5.027,3.863,7.949,8.896,8.764,15.107C410.149,309.543,408.628,315.193,404.759,320.162z
		 M596.584,282.931c-13.161,10.147-30.642,16.653-52.438,19.511c-15.954,2.092-31.527,1.408-46.72-2.051
		c-19.647-4.357-30.269-12.627-31.865-24.805c-0.639-4.869,0.72-9.385,4.077-13.541c3.356-4.156,7.47-6.555,12.342-7.193
		c3.772-0.494,9.027,1.791,15.762,6.854c3.29,2.418,10.17,3.868,20.638,4.354c8.349,0.392,15.324,0.221,20.928-0.515
		c10.229-1.341,19.08-3.739,26.555-7.198c10.862-5.016,15.79-11.359,14.783-19.032c-2.171-16.559-15.211-26.247-39.113-29.058
		l-19.547-1.711c-16.659-1.406-28.71-4.039-36.149-7.895c-10.759-5.524-17.039-15.166-18.844-28.929
		c-3.337-25.449,6.275-45.165,28.846-59.151c6.875-4.246,18.05-9.706,33.525-16.38c15.477-6.674,26.477-12.047,33.003-16.125
		c4.703-2.847,9.979-4.654,15.824-5.42c5.234-0.687,9.751,0.458,13.548,3.426c3.796,2.971,6.053,7.195,6.771,12.675
		c0.464,3.534,1.901,8.608,4.319,15.227c2.416,6.622,3.855,11.696,4.319,15.226c0.718,5.48-0.374,10.146-3.274,13.993
		c-2.903,3.85-6.973,6.117-12.207,6.803c-6.698,0.878-11.684-0.758-14.95-4.914c-2.242-2.926-4.688-9.294-7.337-19.104
		c-8.829,3.512-22.335,9.618-40.518,18.319c-18.585,10.365-27.187,21.28-25.805,32.74c3.828,0.862,7.546,1.365,11.159,1.509
		c28.661,1.322,50.387,5.47,65.175,12.449c21.523,10.184,33.878,27.394,37.055,51.624C619.05,254.47,612.43,270.574,596.584,282.931
		z M709.655,280.182c-3.871,4.965-8.91,7.856-15.12,8.67c-6.334,0.831-11.978-0.658-16.937-4.467
		c-4.958-3.811-7.854-8.882-8.684-15.212c-0.814-6.211,0.68-11.823,4.48-16.845c3.801-5.02,8.866-7.945,15.2-8.775
		c6.209-0.814,11.827,0.711,16.856,4.572c5.027,3.863,7.948,8.896,8.763,15.107C715.044,269.563,713.525,275.214,709.655,280.182z"
		/>
</g>
</svg>
