<?xml version="1.0" encoding="utf-8"?>
<!-- Generator: Adobe Illustrator 15.0.0, SVG Export Plug-In . SVG Version: 6.00 Build 0)  -->
<!DOCTYPE svg PUBLIC "-//W3C//DTD SVG 1.1//EN" "http://www.w3.org/Graphics/SVG/1.1/DTD/svg11.dtd">
<svg version="1.1" id="Layer_1" xmlns="http://www.w3.org/2000/svg" xmlns:xlink="http://www.w3.org/1999/xlink" x="0px" y="0px"
	 width="2341.67px" height="393.932px" viewBox="0 0 2341.67 393.932" enable-background="new 0 0 2341.67 393.932"
	 xml:space="preserve">
<g>
	<path d="M1602.938,128.86c-19.435,1.133-34.079,8.711-43.934,22.73c-8.81,12.625-12.669,28.245-11.583,46.86
		c0.864,14.832,4.326,25.818,10.389,32.956c6.06,7.139,14.715,10.378,25.97,9.723c10.328-0.603,20.01-7.019,29.05-19.246
		c8.169-11.252,12.561-22.182,13.174-32.79c1.504-11.172,2.794-28.644,3.871-52.414c-4.277-2.931-8.66-5.037-13.146-6.315
		C1612.239,129.088,1607.642,128.586,1602.938,128.86z"/>
	<path d="M137.846,172.045c-8.401,0.13-16.971,2.621-25.708,7.468c-4.267,2.424-11.564,7.609-21.893,15.555l0.103,26.59l0.524,23.97
		l0.543,25.199c4.952,2.18,11.912,4.941,20.878,8.285c6.381,1.85,13.515,2.712,21.405,2.59c14.854-0.229,26.966-5.643,36.331-16.24
		c9.366-10.596,13.929-23.679,13.688-39.252c-0.236-15.264-4.275-27.96-12.117-38.086
		C163.133,177.188,151.88,171.828,137.846,172.045z"/>
	<path d="M15.256,232.289c0.269-0.698,0.881-2.293,2-5.204c0.001-0.003,0.002-0.007,0.003-0.01
		C16.429,229.234,15.603,231.387,15.256,232.289z"/>
	<path d="M15.256,232.289c-0.054,0.142-0.1,0.26-0.126,0.33C15.158,232.544,15.202,232.429,15.256,232.289z"/>
	<path d="M15.13,232.619C15.074,232.763,15.07,232.774,15.13,232.619L15.13,232.619z"/>
	<path d="M2314.329,258.33c2.091-47.162,70.963-215.215-18.943-237.287c-127.88-31.396-358.701-14.162-497.066-13.719
		c-178.366,0.571-356.868,4.649-535.092,8.1C971.641,21.068,684.073,6.53,393.075,0.975c-96.908-1.85-151.732,4.927-351.37-0.624
		c-81.264-2.26-11.977,194.196-24.445,226.724c1.88-4.892,3.756-9.774-0.003,0.01c-9.791,25.479-34.613,154.348,35.732,160.773
		c110.698,10.11,234.474-4.048,347.119-0.341c214.565,7.063,430.007,4.919,644.952,3.933
		c401.949-1.847,803.802-7.289,1205.791-8.688C2347.692,382.425,2312.659,295.905,2314.329,258.33z M190.017,285.596
		c-14.808,16.521-33.43,24.956-55.866,25.303c-15.674,0.242-29.962-2.611-42.862-8.561c-3.204,4.969-7.162,7.489-11.873,7.563
		c-3.895,0.061-7.22-1.248-9.974-3.92c-2.758-2.671-4.167-6.057-4.23-10.155c-0.041-2.663,0.025-6.61,0.201-11.839
		c0.174-5.229,0.242-9.173,0.201-11.838c-0.168-10.858-0.703-27.119-1.6-48.777c-0.899-21.658-1.432-37.917-1.6-48.777
		c-0.116-7.478-0.284-21.642-0.503-42.492c-0.222-20.848-0.388-35.063-0.505-42.646c-0.095-6.146,1.099-11.699,3.585-16.656
		c3.284-6.3,7.896-9.498,13.839-9.59c7.684-0.119,11.594,4.278,11.731,13.191c0.022,1.436-0.202,3.538-0.67,6.313
		c-0.472,2.774-0.693,4.879-0.671,6.312l0.06,33.661l0.298,39.19c8.819-6.182,17.225-10.846,25.222-13.993
		c7.994-3.145,15.527-4.774,22.596-4.884c22.025-0.34,40.032,7.835,54.022,24.526c13.154,15.681,19.91,35.098,20.268,58.249
		C212.048,249.135,204.824,269.074,190.017,285.596z M371.442,308.844c-2.929,2.861-6.542,4.328-10.845,4.395
		c-7.89,0.122-12.983-4.668-15.286-14.365c-12.704,6.855-27.405,10.414-44.102,10.672c-13.422,0.208-24.583-2.594-33.484-8.396
		c-9.835-6.405-15.771-15.896-17.809-28.469c-4.415-27.084-6.787-51.232-7.115-72.439c-0.217-14.034,1.073-30.039,3.869-48.016
		c1.296-8.934,6.093-13.466,14.392-13.594c4.404-0.068,8.114,1.284,11.129,4.055c3.014,2.773,4.556,6.361,4.624,10.765
		c0.073,4.713-0.555,12.254-1.879,22.623c-1.326,10.372-1.946,18.271-1.862,23.701c0.265,17.109,1.053,31.75,2.37,43.922
		c1.314,12.176,3.156,21.932,5.524,29.273c3.409,1.791,6.759,3.149,10.054,4.071c3.292,0.924,6.527,1.359,9.704,1.31
		c13.727-0.212,28.188-2.638,43.387-7.279l-0.636-31.192l-0.769-29.808c-0.342-22.128,0.333-41.352,2.029-57.671
		c0.98-9.442,5.876-14.232,14.688-14.369c4.403-0.068,8.113,1.311,11.13,4.132c3.015,2.824,4.453,6.387,4.315,10.693l-1.868,58.13
		c0.114,7.376,0.335,18.439,0.666,33.19c0.329,14.75,0.553,25.813,0.667,33.189c0.035,2.256,0.266,5.684,0.697,10.288
		c0.429,4.604,0.662,8.035,0.697,10.287C375.799,302.344,374.369,305.979,371.442,308.844z M449.82,178.749l-1.125,76.41
		c0.125,8.094-0.102,19.983-0.678,35.67c-0.867,10.26-5.808,15.461-14.821,15.6c-10.041,0.156-15.141-4.991-15.302-15.44
		c-0.191-12.395,0.083-31.024,0.827-55.886c0.742-24.858,1.019-43.488,0.827-55.885c-0.25-16.186-0.282-34.707-0.091-55.563
		c0.189-20.854,0.16-39.375-0.09-55.564c-0.158-10.243,4.78-15.444,14.822-15.6c10.142-0.157,15.292,4.889,15.451,15.132
		c0.25,16.188,0.28,34.709,0.091,55.563C449.537,144.043,449.569,162.564,449.82,178.749z M536.028,177.417l-1.125,76.409
		c0.125,8.095-0.102,19.983-0.678,35.671c-0.867,10.258-5.808,15.46-14.821,15.6c-10.041,0.154-15.141-4.992-15.302-15.441
		c-0.191-12.395,0.083-31.023,0.827-55.885c0.742-24.859,1.019-43.489,0.827-55.886c-0.25-16.186-0.282-34.707-0.091-55.563
		c0.189-20.854,0.16-39.375-0.09-55.563c-0.158-10.243,4.78-15.444,14.822-15.6c10.142-0.157,15.292,4.889,15.451,15.131
		c0.25,16.188,0.28,34.709,0.091,55.563C535.745,142.71,535.778,161.231,536.028,177.417z M726.689,184.749
		c-3.443,0.817-7.496,1.285-12.158,1.402c-4.665,0.119-16.412,1.497-35.245,4.134l0.813,35.053
		c0.37,6.343,1.128,15.844,2.278,28.502c1.148,12.66,1.906,22.11,2.27,28.349c1.134,19.434,0.891,34.636-0.726,45.61
		c-1.264,8.284-5.78,12.652-13.553,13.107c-4.195,0.244-7.853-0.903-10.977-3.439c-3.125-2.539-4.806-5.854-5.044-9.944
		c-0.048-0.819-0.007-1.847,0.128-3.087c1.373-13.42,1.602-27.957,0.689-43.607l-2.904-41.857l-2.596-44.495
		c-12.727,1.771-20.776,2.751-24.152,2.948c-10.332,0.603-15.786-4.056-16.364-13.979c-0.591-10.126,8.049-15.965,25.919-17.522
		l14.702-1.319c-0.027-5.745,0.287-13.565,0.941-23.456c1.334-22.862,6.086-39.92,14.257-51.173
		c9.879-13.61,26.121-21.076,48.728-22.394c14.625-0.853,22.229,3.682,22.808,13.602c0.572,9.82-5.792,15.117-19.086,15.893
		c-24.754,1.444-37.611,19.437-38.572,53.978l0.095,9.538c17.315-2.241,28.53-3.511,33.646-3.81
		c16.263-0.948,24.693,3.693,25.29,13.92C738.313,178.171,734.583,182.853,726.689,184.749z M909.214,310.425
		c-2.805,2.984-6.352,4.604-10.648,4.854c-7.877,0.459-13.17-4.107-15.886-13.699c-12.399,7.394-26.933,11.579-43.604,12.551
		c-13.401,0.781-24.671-1.539-33.813-6.957c-10.101-5.978-16.436-15.205-19.011-27.679c-5.57-26.871-8.973-50.896-10.208-72.068
		c-0.817-14.012-0.214-30.059,1.81-48.138c0.912-8.982,5.511-13.715,13.796-14.198c4.397-0.256,8.161,0.936,11.292,3.575
		c3.131,2.641,4.824,6.16,5.081,10.557c0.275,4.706-0.03,12.266-0.909,22.683c-0.881,10.419-1.163,18.337-0.846,23.759
		c0.997,17.082,2.411,31.676,4.248,43.78c1.834,12.108,4.091,21.776,6.772,29.01c3.483,1.645,6.887,2.856,10.219,3.639
		c3.329,0.78,6.579,1.076,9.751,0.892c13.706-0.8,28.049-3.843,43.035-9.13l-1.971-31.137l-2.044-29.746
		c-1.289-22.094-1.437-41.329-0.44-57.706c0.575-9.475,5.261-14.47,14.059-14.983c4.396-0.256,8.162,0.962,11.297,3.651
		c3.133,2.692,4.722,6.191,4.769,10.499l0.622,58.157c0.43,7.364,1.124,18.407,2.086,33.131c0.96,14.724,1.657,25.766,2.087,33.132
		c0.131,2.251,0.508,5.666,1.137,10.248c0.626,4.582,1.006,7.999,1.137,10.247C913.288,303.744,912.014,307.437,909.214,310.425z
		 M1053.759,294.37c-13.451,6.943-24.729,10.68-33.831,11.211c-20.969,1.225-38.83-4.098-53.583-15.964
		c-15.503-12.437-23.892-29.55-25.163-51.335c-1.211-20.765,4.443-42.596,16.963-65.495c13.91-25.444,30.479-38.727,49.71-39.848
		c10.023-0.585,21.361,1.116,34.013,5.098c16.001,5.123,24.254,12.031,24.762,20.724c0.227,3.889-0.851,7.416-3.229,10.58
		c-2.383,3.168-5.467,4.861-9.25,5.082c-2.967,0.173-5.602-0.57-7.905-2.233c-2.305-1.66-4.529-3.301-6.676-4.921
		c-6.316-4.455-16.327-6.284-30.032-5.484c-10.433,0.608-20.223,10.52-29.363,29.732c-8.313,17.625-12.103,32.676-11.375,45.156
		c0.788,13.501,6.012,23.872,15.67,31.106c9.016,6.763,20.274,9.748,33.776,8.96c6.137-0.358,12.585-2.375,19.351-6.056
		l17.242-10.55c2.974-1.815,5.125-2.762,6.456-2.841c3.783-0.221,7.146,1.1,10.082,3.953c2.939,2.858,4.522,6.23,4.749,10.116
		C1076.561,278.828,1069.103,286.497,1053.759,294.37z M1250.457,284.282c-3.05,3.153-6.672,4.854-10.864,5.098
		c-5.628,0.328-10.146-2.385-13.562-8.138c-5.923-10.019-14.664-21.774-26.227-35.264l-29.314-35.392
		c-5.659,5.052-14.48,12.186-26.463,21.403c-0.201,15.923,0.138,31.397,1.016,46.434c0.269,4.602-0.919,8.42-3.566,11.446
		c-2.646,3.025-6.169,4.671-10.566,4.927c-10.332,0.603-15.901-6.051-16.712-19.963c-0.496-8.488-0.649-21.229-0.46-38.228
		c0.188-16.997,0.036-29.739-0.459-38.23c-0.907-15.546-1.713-33.332-2.419-53.356c-0.707-20.023-1.508-37.707-2.403-53.05
		c-0.269-4.602-0.814-10.009-1.638-16.222c-0.823-6.211-1.37-11.621-1.638-16.223c-0.269-4.603,0.917-8.418,3.565-11.446
		c2.645-3.026,6.167-4.671,10.566-4.927c4.396-0.257,8.086,0.966,11.066,3.665c2.979,2.701,4.605,6.351,4.874,10.954
		c0.274,4.706,0.852,10.241,1.739,16.602c0.883,6.364,1.463,11.898,1.738,16.602l1.807,49.466
		c0.525,17.828,1.409,35.634,2.655,53.419c13.288-11.448,26.009-23.891,38.155-37.326l31.725-36.797
		c3.17-3.673,6.699-5.625,10.589-5.853c3.988-0.232,7.687,1.145,11.094,4.126c3.407,2.983,5.232,6.571,5.478,10.765
		c0.203,3.478-1.081,6.991-3.852,10.539c-11.721,15.463-26.294,32.17-43.722,50.121l36.104,43.617
		c16.897,20.466,25.533,33.919,25.909,40.363C1254.909,277.507,1253.505,281.128,1250.457,284.282z M1284.577,55.063
		c3.376-3.685,7.521-5.673,12.43-5.959c4.91-0.286,9.23,1.208,12.963,4.478c3.731,3.272,5.74,7.363,6.027,12.272
		c0.287,4.91-1.233,9.208-4.561,12.89c-3.325,3.686-7.443,5.669-12.354,5.956c-4.908,0.286-9.255-1.204-13.037-4.474
		c-3.786-3.267-5.818-7.358-6.105-12.267C1279.655,63.048,1281.198,58.75,1284.577,55.063z M1314.046,275.184
		c-2.596,3.025-6.146,4.669-10.645,4.931c-4.396,0.258-8.087-0.964-11.067-3.665c-2.979-2.697-4.6-6.297-4.863-10.8
		c-0.356-6.137-1.072-15.306-2.145-27.51c-1.071-12.199-1.784-21.371-2.142-27.508c-0.563-9.613-0.751-21.637-0.566-36.068
		c0.184-14.429-0.003-26.452-0.563-36.068c-0.268-4.603,0.917-8.417,3.565-11.446c2.645-3.026,6.165-4.67,10.566-4.927
		c4.396-0.257,8.087,0.967,11.065,3.665c2.979,2.701,4.606,6.351,4.874,10.954c0.561,9.616,0.747,21.639,0.564,36.068
		c-0.187,14.432,0.002,26.456,0.564,36.069c0.357,6.137,1.07,15.309,2.143,27.509c1.07,12.202,1.787,21.37,2.144,27.509
		C1317.806,268.398,1316.64,272.161,1314.046,275.184z M1498.215,274.678c-2.75,2.981-6.327,4.602-10.723,4.858
		c-8.798,0.513-14.039-4.007-15.725-13.553l-6.255-33.352c-2.132-11.883-3.5-23.042-4.109-33.475
		c-0.167-2.862-0.272-7.731-0.313-14.606c-0.042-6.873-0.147-11.743-0.314-14.608c-1.289-22.093-6.023-32.901-14.206-32.424
		c-11.456,0.668-22.005,8.111-31.644,22.321c-8.689,12.926-15.14,29.006-19.355,48.237c0.026,4.001-0.141,9.04-0.504,15.117
		c-0.315,5.15-0.331,10.129-0.051,14.936c0.179,3.068,0.754,7.653,1.725,13.755c0.973,6.102,1.547,10.687,1.726,13.755
		c0.27,4.603-0.92,8.417-3.563,11.446c-2.649,3.026-6.17,4.669-10.567,4.926c-4.503,0.263-8.217-0.958-11.144-3.66
		c-2.929-2.703-4.528-6.356-4.795-10.958c-0.179-3.069-0.782-7.653-1.803-13.751c-1.026-6.099-1.625-10.681-1.804-13.749
		c-0.615-10.533-0.727-25.18-0.33-43.934c0.392-18.752,0.284-33.396-0.332-43.933c-0.19-3.272-0.654-8.122-1.387-14.545
		c-0.735-6.422-1.196-11.269-1.388-14.544c-0.257-4.396,0.991-8.086,3.741-11.071c2.752-2.982,6.275-4.6,10.571-4.851
		c9.408-0.549,14.963,5.8,16.66,19.042l1.507,17.924c15.846-23.913,32.823-36.399,50.928-37.456
		c16.362-0.955,28.19,5.591,35.476,19.637c4.959,9.359,8.191,23.438,9.7,42.232l0.904,15.496l0.679,14.277
		c0.494,8.492,2.232,19.398,5.219,32.718c2.983,13.322,4.721,24.179,5.209,32.565
		C1502.212,267.953,1500.966,271.693,1498.215,274.678z M1658.524,163.335c-1.532,14.252-2.35,23.948-2.461,29.086l-0.521,51.757
		c0.58,20.492-0.542,37.337-3.362,50.537c-3.638,16.839-10.288,29.49-19.956,37.957c-11.718,10.229-29.189,16.021-52.406,17.375
		c-13.604,0.794-25.063,0.539-34.375-0.766c-13.036-1.806-19.791-6.749-20.263-14.828c-0.532-9.104,3.652-13.914,12.552-14.434
		c3.683-0.214,9.871,0.321,18.566,1.61c8.697,1.286,18.257,1.526,28.677,0.714c19.622-1.453,32.618-11.756,38.994-30.91
		c4.18-12.766,5.671-32.094,4.468-57.991c-4.926,10.552-11.055,18.606-18.374,24.165c-7.321,5.557-15.892,8.624-25.71,9.197
		c-18.515,1.08-33.945-4.356-46.289-16.313c-12.348-11.954-19.108-28.005-20.282-48.157c-1.611-27.617,5.015-50.325,19.887-68.127
		c15.349-18.342,37.143-28.338,65.373-29.985c9.513-0.555,17.562,0.208,24.149,2.286c6.585,2.079,11.712,5.475,15.371,10.188
		c10.963-0.332,16.791,5.436,17.483,17.3C1660.468,141.26,1659.962,151.039,1658.524,163.335z M1856.397,151.708
		c-0.257,4.604-1.873,8.26-4.845,10.966c-2.977,2.707-6.661,3.938-11.06,3.691c-5.626-0.314-9.46-2.427-11.497-6.338
		c-1.386-2.745-2.407-8.343-3.063-16.796c-7.782,1.516-19.798,4.434-36.048,8.758c-16.839,5.626-25.578,13.245-26.216,22.854
		c3.007,1.298,5.978,2.285,8.917,2.961c23.291,5.513,40.463,12.27,51.51,20.276c16.07,11.675,23.541,27.691,22.401,48.047
		c-0.934,16.677-8.85,28.854-23.75,36.539c-12.358,6.285-27.692,8.917-46.004,7.893c-13.402-0.751-26.063-3.718-37.983-8.899
		c-15.436-6.609-22.864-15.029-22.291-25.259c0.228-4.091,2.04-7.583,5.434-10.472c3.395-2.888,7.136-4.219,11.229-3.989
		c3.169,0.178,7.125,2.861,11.862,8.053c2.324,2.491,7.74,4.743,16.247,6.758c6.783,1.61,12.53,2.548,17.236,2.812
		c8.595,0.481,16.221-0.117,22.882-1.799c9.68-2.433,14.701-6.873,15.062-13.317c0.779-13.911-8.415-23.868-27.575-29.866
		l-15.761-4.422c-13.439-3.728-22.914-7.748-28.419-12.058c-7.966-6.191-11.626-15.067-10.978-26.628
		c1.195-21.38,12.123-36.058,32.788-44.036c6.292-2.418,16.296-5.168,30.016-8.249c13.718-3.081,23.566-5.786,29.547-8.121
		c4.295-1.607,8.901-2.272,13.813-1.997c4.396,0.246,7.923,1.881,10.575,4.901c2.653,3.023,3.854,6.834,3.595,11.438
		c-0.165,2.968,0.229,7.351,1.187,13.15C1856.166,144.361,1856.564,148.743,1856.397,151.708z M2027.67,290.13
		c-0.235,4.197-1.964,7.611-5.191,10.254c-3.226,2.642-6.987,3.843-11.285,3.603c-7.265-0.407-11.803-4.562-13.617-12.461
		c-1.886-8.519-3.367-20.558-4.444-36.114c-1.012-14.935-1.25-27.161-0.719-36.675c0.148-2.659,0.502-6.692,1.063-12.101
		c0.557-5.407,0.914-9.44,1.063-12.101c1.075-19.231-3.195-29.117-12.811-29.655c-12.993-0.727-24.934,4.506-35.82,15.697
		c-5.554,5.746-13.36,16.853-23.413,33.323c-2.182,38.977-5.11,61.955-8.785,68.931c-3.218,6.182-7.847,9.105-13.881,8.767
		c-4.195-0.234-7.798-1.874-10.808-4.915c-3.012-3.039-4.401-6.607-4.174-10.7c0.081-1.432,0.667-3.657,1.76-6.675
		c0.961-2.509,1.94-9.946,2.941-22.308l1.731-22.685l6.77-112.759c1.425-12.644,2.263-21.166,2.509-25.565
		c0.293-5.217,0.081-10.18-0.63-14.89c-0.711-4.708-0.926-9.569-0.646-14.583c0.241-4.296,1.92-7.767,5.047-10.416
		c3.124-2.646,6.835-3.851,11.131-3.61c8.387,0.469,13.044,5.247,13.976,14.328c1.079,10.015,1.399,19.012,0.953,26.991
		c-0.602,10.741-1.589,21.923-2.956,33.545c-1.237,11.117-2.121,22.305-2.647,33.563l-0.602,13.512
		c9.017-10.783,18.464-18.693,28.343-23.735c9.876-5.039,20.186-7.26,30.926-6.659c16.981,0.95,28.334,7.127,34.061,18.531
		c4.065,8.027,5.89,21.264,5.474,39.711l-0.412,29.377l1.282,32.089c0.762,12.05,1.911,22.684,3.449,31.903
		C2027.616,287.41,2027.739,288.903,2027.67,290.13z M2112.028,158.008c-0.538,9.617-1.723,21.584-3.549,35.898
		c-1.828,14.315-3.011,26.283-3.547,35.897c-0.345,6.138-0.681,15.331-1.006,27.574c-0.327,12.245-0.659,21.437-1.004,27.574
		c-0.251,4.503-1.838,8.107-4.76,10.815c-2.923,2.712-6.636,3.939-11.137,3.688c-4.397-0.246-7.925-1.88-10.577-4.901
		c-2.653-3.021-3.854-6.781-3.602-11.285c0.345-6.137,0.679-15.328,1.004-27.574c0.324-12.242,0.66-21.436,1.005-27.573
		c0.537-9.615,1.72-21.581,3.548-35.898c1.825-14.314,3.01-26.28,3.549-35.898c0.258-4.603,1.87-8.257,4.847-10.965
		c2.972-2.705,6.657-3.937,11.059-3.691c4.396,0.246,7.923,1.881,10.578,4.902C2111.086,149.593,2112.286,153.405,2112.028,158.008z
		 M2123.948,88.023c-0.275,4.91-2.275,9.006-5.999,12.286c-3.724,3.282-8.041,4.784-12.952,4.509
		c-4.909-0.275-9.058-2.25-12.442-5.93c-3.39-3.677-4.942-7.973-4.668-12.882c0.274-4.911,2.298-9.004,6.075-12.283
		c3.773-3.276,8.119-4.779,13.027-4.504c4.911,0.275,9.033,2.251,12.369,5.925C2122.693,78.82,2124.223,83.112,2123.948,88.023z
		 M2278.777,162.721c-0.252,4.503-1.868,8.131-4.844,10.889c-2.978,2.758-6.664,4.014-11.063,3.768
		c-2.147-0.12-4.674-0.363-7.578-0.732c-2.903-0.367-5.43-0.612-7.579-0.732c-2.354-0.131-9.354,0.247-20.997,1.134l-2.159,90.852
		l-0.225,6.76l-0.283,7.834c-0.848,22.427-6.845,33.327-17.993,32.704c-4.094-0.229-7.573-1.76-10.441-4.586
		c-2.87-2.83-4.191-6.238-3.969-10.228c0.217-3.887,0.696-9.709,1.438-17.467c0.742-7.756,1.224-13.579,1.44-17.469l1.945-89.784
		c-7.451-0.725-18.758-2.229-33.919-4.515c-9.037-1.737-13.306-7.056-12.809-15.957c0.251-4.5,1.842-8.156,4.771-10.969
		c2.929-2.812,6.541-4.099,10.838-3.858l32.078,4.412c0.292-5.217,0.453-12.212,0.481-20.984c0.027-8.772,0.151-15.101,0.368-18.99
		c0.24-4.296,1.922-7.767,5.047-10.416c3.124-2.646,6.835-3.85,11.131-3.61c9.208,0.515,14.159,8.334,14.85,23.458
		c0.097,3.804-0.006,8.365-0.302,13.683l-0.806,8.883l-0.686,9.505c12.774-0.926,20.086-1.34,21.928-1.237
		c10.637,0.595,17.564,1.498,20.781,2.703C2276.347,150.17,2279.199,155.152,2278.777,162.721z"/>
</g>
</svg>
