<?xml version="1.0" encoding="utf-8"?>
<!-- Generator: Adobe Illustrator 15.0.0, SVG Export Plug-In . SVG Version: 6.00 Build 0)  -->
<!DOCTYPE svg PUBLIC "-//W3C//DTD SVG 1.1//EN" "http://www.w3.org/Graphics/SVG/1.1/DTD/svg11.dtd">
<svg version="1.1" id="Layer_1" xmlns="http://www.w3.org/2000/svg" xmlns:xlink="http://www.w3.org/1999/xlink" x="0px" y="0px"
	 width="1243.843px" height="406.691px" viewBox="0.186 -11.615 1243.843 406.691"
	 enable-background="new 0.186 -11.615 1243.843 406.691" xml:space="preserve">
<g>
	<path d="M137.97,152.265c-9.154-0.243-18.599,2.076-28.334,6.953c-4.757,2.444-12.941,7.756-24.552,15.934l-1.106,28.957
		l-0.529,26.124l-0.564,27.464c5.293,2.6,12.744,5.927,22.354,9.979c6.863,2.308,14.591,3.572,23.188,3.802
		c16.184,0.431,29.621-4.908,40.304-16.016c10.685-11.109,16.253-25.146,16.705-42.114c0.443-16.63-3.373-30.639-11.446-42.026
		C165.269,159.025,153.261,152.674,137.97,152.265z"/>
	<path d="M1236.13,157.626c0.155-0.787,0.281-1.426,0.381-1.932C1236.401,156.246,1236.271,156.907,1236.13,157.626z"/>
	<path d="M1235.672,159.951c5.204-26.419,18.398-160.047-18.994-166.71c-58.843-10.483-124.638,4.198-184.516,0.354
		c-114.055-7.323-228.576-5.101-342.832-4.078C475.669-8.568,262.058-2.925,48.376-1.474C-3.101-1.125,15.521,88.589,14.633,127.552
		c-1.112,48.904-37.721,223.162,10.07,246.048c67.976,32.556,190.672,14.686,264.222,14.226
		c94.813-0.592,189.698-4.82,284.435-8.398c154.997-5.853,307.857,9.223,462.541,14.981c51.513,1.918,80.655-5.108,186.775,0.647
		C1265.877,397.4,1229.035,193.65,1235.672,159.951z M215.909,214.158c-0.678,25.45-9.458,46.831-26.339,64.142
		s-37.545,25.642-61.991,24.99c-17.078-0.455-32.505-4.219-46.279-11.287c-3.716,5.262-8.141,7.824-13.274,7.688
		c-4.243-0.112-7.804-1.688-10.681-4.724c-2.88-3.035-4.259-6.786-4.14-11.252c0.077-2.901,0.33-7.196,0.762-12.882
		c0.429-5.685,0.685-9.979,0.763-12.882c0.315-11.83,0.479-29.561,0.496-53.185c0.014-23.625,0.18-41.351,0.495-53.185
		c0.217-8.146,0.684-23.578,1.401-46.291c0.715-22.711,1.185-38.196,1.405-46.458c0.179-6.697,1.734-12.688,4.668-17.972
		c3.865-6.709,9.034-9.98,15.509-9.808c8.372,0.223,12.429,5.19,12.17,14.901c-0.042,1.564-0.383,3.844-1.021,6.843
		c-0.64,2.999-0.978,5.28-1.02,6.843l-1.479,36.654l-1.472,42.687c9.887-6.325,19.253-11.02,28.105-14.079
		c8.849-3.058,17.126-4.486,24.828-4.281c23.998,0.64,43.23,10.368,57.699,29.184C210.115,167.483,216.581,188.933,215.909,214.158z
		 M396.94,142.244l-4.701,63.209c-0.214,8.037-0.48,20.095-0.796,36.171c-0.318,16.076-0.582,28.132-0.796,36.17
		c-0.065,2.456,0.028,6.2,0.287,11.232c0.256,5.035,0.353,8.78,0.288,11.234c-0.128,4.799-1.853,8.689-5.171,11.675
		c-3.32,2.982-7.322,4.412-12.01,4.287c-8.597-0.229-13.923-5.677-15.985-16.343c-14.148,6.884-30.318,10.083-48.511,9.599
		c-14.625-0.39-26.648-3.952-36.075-10.679c-10.415-7.426-16.442-18.032-18.085-31.815c-3.565-29.694-5.04-56.098-4.424-79.203
		c0.407-15.291,2.546-32.659,6.415-52.105c1.821-9.67,7.253-14.384,16.294-14.143c4.798,0.128,8.775,1.771,11.932,4.926
		c3.155,3.157,4.669,7.135,4.541,11.933c-0.137,5.137-1.166,13.318-3.083,24.549c-1.919,11.232-2.957,19.805-3.115,25.72
		c-0.497,18.642-0.31,34.62,0.565,47.934c0.874,13.319,2.431,24.026,4.673,32.128c3.63,2.108,7.215,3.741,10.76,4.895
		c3.543,1.158,7.045,1.779,10.506,1.872c14.957,0.398,30.814-1.58,47.576-5.938l0.739-33.993l0.531-32.492
		c0.642-24.109,2.26-45.01,4.854-62.703c1.501-10.235,7.051-15.226,16.652-14.97c4.798,0.128,8.774,1.799,11.93,5.009
		C395.885,133.615,397.287,137.561,396.94,142.244z M479.81,113.371c-1.165,22.701-1.979,42.87-2.45,60.505l-4.729,83.149
		c-0.235,8.818-1.027,21.753-2.375,38.809c-1.414,11.131-7.034,16.567-16.854,16.306c-10.941-0.291-16.257-6.129-15.954-17.515
		c0.36-13.505,1.513-33.778,3.464-60.814c1.948-27.034,3.104-47.305,3.463-60.813c0.47-17.635,1.285-37.804,2.45-60.505
		c1.163-22.698,1.98-42.867,2.45-60.506c0.298-11.16,5.914-16.598,16.854-16.306c11.051,0.294,16.428,6.024,16.13,17.185
		C481.79,70.504,480.973,90.673,479.81,113.371z M573.741,115.874c-1.165,22.701-1.98,42.87-2.45,60.505l-4.729,83.149
		c-0.235,8.818-1.027,21.754-2.375,38.809c-1.414,11.131-7.034,16.567-16.854,16.306c-10.941-0.291-16.257-6.129-15.954-17.515
		c0.36-13.505,1.512-33.778,3.464-60.814c1.948-27.034,3.103-47.305,3.463-60.813c0.47-17.635,1.286-37.804,2.451-60.505
		c1.162-22.698,1.98-42.867,2.45-60.506c0.298-11.16,5.914-16.598,16.854-16.306c11.051,0.294,16.428,6.024,16.13,17.185
		C575.721,73.007,574.904,93.176,573.741,115.874z M752.5,166.966c-0.134,5.023-1.778,9.059-4.93,12.101
		c-3.155,3.044-7.131,4.501-11.929,4.373c-6.141-0.163-10.384-2.342-12.728-6.538c-1.598-2.946-2.889-9.013-3.872-18.199
		c-8.429,1.898-21.424,5.461-38.99,10.689c-18.163,6.666-27.439,15.244-27.828,25.732c3.315,1.318,6.583,2.299,9.806,2.941
		c25.551,5.263,44.471,12.077,56.76,20.446c17.88,12.205,26.527,29.416,25.936,51.627c-0.484,18.195-8.72,31.716-24.707,40.561
		c-13.262,7.241-29.883,10.598-49.863,10.065c-14.624-0.39-28.51-3.219-41.661-8.483c-17.025-6.707-25.388-15.644-25.09-26.807
		c0.119-4.464,1.981-8.325,5.587-11.58c3.605-3.255,7.64-4.822,12.104-4.703c3.458,0.092,7.854,2.89,13.182,8.393
		c2.61,2.641,8.581,4.921,17.912,6.846c7.442,1.538,13.731,2.376,18.867,2.513c9.377,0.25,17.665-0.646,24.869-2.688
		c10.468-2.96,15.795-7.957,15.982-14.989c0.404-15.179-9.927-25.732-30.992-31.655l-17.31-4.315
		c-14.762-3.631-25.208-7.708-31.342-12.229c-8.875-6.489-13.145-16.042-12.809-28.656c0.622-23.329,12.058-39.667,34.314-49.018
		c6.778-2.835,17.591-6.149,32.436-9.942c14.846-3.793,25.489-7.055,31.929-9.789c4.629-1.887,9.623-2.76,14.981-2.616
		c4.799,0.127,8.691,1.797,11.68,5.002c2.985,3.208,4.412,7.322,4.278,12.346c-0.087,3.239,0.483,8.001,1.714,14.288
		C752.014,158.968,752.586,163.729,752.5,166.966z M938.163,323.632c-3.431,2.979-7.489,4.409-12.179,4.284
		c-7.927-0.211-13.004-4.594-15.23-13.141c-2.326-9.22-4.323-22.287-5.993-39.2c-1.578-16.237-2.229-29.548-1.952-39.929
		c0.078-2.901,0.334-7.307,0.771-13.217c0.435-5.907,0.692-10.313,0.77-13.216c0.56-20.984-4.408-31.618-14.899-31.897
		c-14.177-0.378-27.018,5.705-38.52,18.242c-5.869,6.435-14.018,18.786-24.445,37.048c-1.133,42.528-3.591,67.653-7.37,75.369
		c-3.31,6.837-8.259,10.169-14.844,9.993c-4.578-0.122-8.555-1.793-11.931-5.009c-3.378-3.217-5.005-7.059-4.886-11.524
		c0.042-1.563,0.609-4.005,1.702-7.328c0.967-2.763,1.799-10.897,2.494-24.396l1.162-24.768l3.781-123.049
		c1.148-13.819,1.789-23.13,1.917-27.93c0.151-5.693-0.236-11.092-1.159-16.2c-0.927-5.106-1.315-10.395-1.169-15.865
		c0.125-4.688,1.844-8.522,5.165-11.508c3.318-2.982,7.323-4.412,12.011-4.287c9.151,0.244,14.379,5.299,15.681,15.162
		c1.496,10.876,2.131,20.666,1.898,29.373c-0.313,11.72-1.03,23.933-2.148,36.637c-0.994,12.15-1.601,24.364-1.815,36.646
		l-0.225,14.739c9.479-12.034,19.518-20.953,30.118-26.761c10.598-5.804,21.758-8.552,33.479-8.239
		c18.527,0.493,31.093,6.86,37.693,19.1c4.685,8.615,7.096,22.978,7.229,43.086l0.488,32.016l2.42,34.916
		c1.214,13.102,2.804,24.65,4.773,34.644c0.395,1.91,0.576,3.533,0.541,4.873C943.37,316.875,941.594,320.65,938.163,323.632z
		 M1028.455,204.897c-1.534,15.655-2.44,28.729-2.72,39.22c-0.179,6.697-0.252,16.722-0.215,30.069
		c0.034,13.35-0.037,23.374-0.215,30.07c-0.131,4.913-1.745,8.892-4.843,11.935c-3.098,3.047-7.102,4.503-12.013,4.372
		c-4.801-0.128-8.693-1.794-11.679-5.003c-2.988-3.206-4.414-7.266-4.283-12.179c0.178-6.696,0.25-16.72,0.215-30.07
		c-0.037-13.347,0.036-23.372,0.215-30.069c0.279-10.491,1.186-23.563,2.72-39.219c1.533-15.651,2.441-28.725,2.721-39.218
		c0.135-5.022,1.776-9.056,4.931-12.101c3.151-3.041,7.128-4.501,11.93-4.373c4.798,0.128,8.69,1.797,11.678,5.003
		c2.986,3.208,4.414,7.322,4.279,12.345C1030.896,176.173,1029.987,189.246,1028.455,204.897z M1035.788,102.635
		c-3.952,3.693-8.606,5.467-13.964,5.324c-5.358-0.143-9.942-2.163-13.746-6.063c-3.809-3.898-5.638-8.528-5.494-13.886
		c0.143-5.358,2.216-9.882,6.226-13.573c4.007-3.689,8.69-5.466,14.049-5.323c5.357,0.143,9.912,2.165,13.661,6.062
		c3.75,3.898,5.555,8.525,5.412,13.883C1041.788,94.417,1039.739,98.943,1035.788,102.635z M1212.976,165.497
		c-0.132,4.913-1.776,8.917-4.93,12.017c-3.155,3.099-7.133,4.584-11.931,4.456c-2.344-0.062-5.104-0.245-8.279-0.555
		c-3.176-0.307-5.936-0.493-8.279-0.556c-2.568-0.068-10.181,0.565-22.838,1.904l0.545,99.04l-0.028,7.37l-0.061,8.544
		c-0.206,24.457-6.393,36.523-18.559,36.199c-4.465-0.119-8.307-1.674-11.521-4.662c-3.216-2.992-4.766-6.663-4.649-11.016
		c0.113-4.241,0.45-10.6,1.012-19.074c0.561-8.473,0.897-14.831,1.011-19.074l-0.743-97.871c-8.141-0.552-20.506-1.829-37.096-3.837
		c-9.899-1.604-14.718-7.262-14.459-16.973c0.131-4.911,1.746-8.944,4.846-12.103c3.101-3.155,6.995-4.673,11.684-4.548
		l35.085,3.783c0.151-5.693,0.103-13.317-0.144-22.875c-0.249-9.557-0.316-16.454-0.203-20.698
		c0.125-4.688,1.845-8.522,5.165-11.507c3.318-2.982,7.322-4.413,12.011-4.288c10.046,0.268,15.688,8.629,16.924,25.081
		c0.226,4.141,0.261,9.113,0.106,14.916l-0.594,9.702l-0.444,10.376c13.887-1.415,21.838-2.099,23.848-2.045
		c11.607,0.309,19.182,1.071,22.726,2.281C1209.928,151.901,1213.196,157.238,1212.976,165.497z M1235.214,162.277
		c-0.142,0.718-0.271,1.379-0.381,1.932C1234.932,163.703,1235.058,163.064,1235.214,162.277z"/>
</g>
</svg>
